<mxfile host="app.diagrams.net" modified="2023-08-16T10:31:08.119Z" agent="Mozilla/5.0 (Windows NT 10.0; Win64; x64) AppleWebKit/537.36 (KHTML, like Gecko) Chrome/115.0.0.0 Safari/537.36" version="21.6.6" etag="OMafVplPSNHPY-0s4xvN" type="github">
  <diagram name="Page-1" id="6q2sXKUMOU3YMIk7FLAt">
    <mxGraphModel>
      <root>
        <mxCell id="0" />
        <mxCell id="1" parent="0" />
      </root>
    </mxGraphModel>
  </diagram>
</mxfile>
